<svg xmlns="http://www.w3.org/2000/svg" xmlns:xlink="http://www.w3.org/1999/xlink" width="500" zoomAndPan="magnify" viewBox="0 0 375 374.999991" height="500" preserveAspectRatio="xMidYMid meet" version="1.0"><defs><filter x="0%" y="0%" width="100%" height="100%" id="0f2d570a0d"><feColorMatrix values="0 0 0 0 1 0 0 0 0 1 0 0 0 0 1 0 0 0 1 0" color-interpolation-filters="sRGB"/></filter><mask id="def0a74cdb"><g filter="url(#0f2d570a0d)"><rect x="-37.5" width="450" fill="#000000" y="-37.499999" height="449.999989" fill-opacity="0.51"/></g></mask><clipPath id="e8ebcc317a"><path d="M 2.023438 0.0390625 L 356.773438 0.0390625 L 356.773438 233 L 2.023438 233 Z M 2.023438 0.0390625 " clip-rule="nonzero"/></clipPath><clipPath id="9977fed41e"><rect x="0" width="359" y="0" height="234"/></clipPath></defs><g mask="url(#def0a74cdb)"><g transform="matrix(1, 0, 0, 1, 8, 71)"><g clip-path="url(#9977fed41e)"><g clip-path="url(#e8ebcc317a)"><path fill="#ffffff" d="M 336.636719 0.613281 L 22.054688 0.613281 C 21.394531 0.613281 20.738281 0.644531 20.082031 0.710938 C 19.421875 0.777344 18.773438 0.875 18.125 1.003906 C 17.476562 1.132812 16.835938 1.292969 16.207031 1.484375 C 15.574219 1.675781 14.953125 1.898438 14.34375 2.152344 C 13.734375 2.40625 13.136719 2.6875 12.554688 3 C 11.972656 3.308594 11.410156 3.648438 10.859375 4.015625 C 10.3125 4.382812 9.78125 4.777344 9.269531 5.195312 C 8.761719 5.613281 8.273438 6.058594 7.804688 6.523438 C 7.339844 6.992188 6.894531 7.480469 6.476562 7.988281 C 6.058594 8.5 5.664062 9.027344 5.296875 9.578125 C 4.929688 10.125 4.59375 10.691406 4.28125 11.273438 C 3.96875 11.855469 3.6875 12.453125 3.433594 13.0625 C 3.179688 13.671875 2.957031 14.292969 2.765625 14.925781 C 2.574219 15.554688 2.414062 16.195312 2.285156 16.84375 C 2.15625 17.488281 2.058594 18.140625 1.992188 18.800781 C 1.925781 19.457031 1.894531 20.113281 1.894531 20.773438 L 1.894531 212.511719 C 1.894531 213.171875 1.925781 213.832031 1.992188 214.488281 C 2.058594 215.144531 2.15625 215.796875 2.285156 216.445312 C 2.414062 217.09375 2.574219 217.730469 2.765625 218.363281 C 2.957031 218.996094 3.179688 219.617188 3.433594 220.226562 C 3.6875 220.835938 3.96875 221.429688 4.28125 222.011719 C 4.59375 222.59375 4.929688 223.160156 5.296875 223.710938 C 5.664062 224.257812 6.058594 224.789062 6.476562 225.296875 C 6.894531 225.808594 7.339844 226.296875 7.804688 226.761719 C 8.273438 227.230469 8.761719 227.671875 9.269531 228.09375 C 9.78125 228.511719 10.3125 228.902344 10.859375 229.269531 C 11.410156 229.636719 11.972656 229.976562 12.554688 230.289062 C 13.136719 230.601562 13.734375 230.882812 14.34375 231.136719 C 14.953125 231.386719 15.574219 231.609375 16.207031 231.800781 C 16.835938 231.996094 17.476562 232.15625 18.125 232.285156 C 18.773438 232.414062 19.421875 232.511719 20.082031 232.578125 C 20.738281 232.640625 21.394531 232.675781 22.054688 232.675781 L 336.636719 232.675781 C 337.296875 232.675781 337.953125 232.640625 338.613281 232.578125 C 339.269531 232.511719 339.921875 232.414062 340.566406 232.285156 C 341.214844 232.15625 341.855469 231.996094 342.488281 231.804688 C 343.117188 231.609375 343.738281 231.386719 344.347656 231.136719 C 344.960938 230.882812 345.554688 230.601562 346.136719 230.289062 C 346.71875 229.976562 347.285156 229.640625 347.832031 229.273438 C 348.382812 228.90625 348.914062 228.511719 349.421875 228.09375 C 349.933594 227.675781 350.421875 227.230469 350.886719 226.765625 C 351.355469 226.296875 351.796875 225.808594 352.21875 225.300781 C 352.636719 224.789062 353.027344 224.257812 353.394531 223.710938 C 353.761719 223.160156 354.101562 222.597656 354.414062 222.015625 C 354.726562 221.433594 355.007812 220.835938 355.261719 220.226562 C 355.511719 219.617188 355.734375 218.996094 355.929688 218.363281 C 356.121094 217.730469 356.28125 217.09375 356.410156 216.445312 C 356.539062 215.796875 356.636719 215.144531 356.703125 214.488281 C 356.765625 213.832031 356.800781 213.171875 356.800781 212.511719 L 356.800781 20.773438 C 356.800781 20.113281 356.765625 19.457031 356.703125 18.796875 C 356.636719 18.140625 356.539062 17.488281 356.410156 16.84375 C 356.28125 16.195312 356.121094 15.554688 355.929688 14.921875 C 355.734375 14.292969 355.511719 13.671875 355.261719 13.0625 C 355.007812 12.453125 354.726562 11.855469 354.414062 11.273438 C 354.101562 10.691406 353.761719 10.125 353.394531 9.578125 C 353.027344 9.027344 352.636719 8.5 352.21875 7.988281 C 351.796875 7.476562 351.355469 6.988281 350.886719 6.523438 C 350.421875 6.054688 349.933594 5.613281 349.421875 5.195312 C 348.914062 4.773438 348.382812 4.382812 347.832031 4.015625 C 347.285156 3.648438 346.71875 3.308594 346.136719 2.996094 C 345.554688 2.6875 344.960938 2.40625 344.347656 2.152344 C 343.738281 1.898438 343.117188 1.675781 342.488281 1.484375 C 341.855469 1.292969 341.214844 1.132812 340.566406 1.003906 C 339.921875 0.875 339.269531 0.777344 338.613281 0.710938 C 337.953125 0.644531 337.296875 0.613281 336.636719 0.613281 Z M 235.125 116.644531 L 345.878906 17.917969 C 346.183594 18.84375 346.34375 19.796875 346.355469 20.773438 L 346.355469 212.511719 C 346.34375 213.488281 346.183594 214.441406 345.878906 215.371094 Z M 336.625 11.058594 C 336.992188 11.074219 337.363281 11.113281 337.726562 11.171875 L 185.777344 146.613281 C 185.335938 147.007812 184.863281 147.355469 184.359375 147.664062 C 183.855469 147.96875 183.328125 148.230469 182.777344 148.4375 C 182.222656 148.648438 181.65625 148.808594 181.078125 148.914062 C 180.496094 149.023438 179.910156 149.074219 179.320312 149.074219 C 178.730469 149.074219 178.144531 149.023438 177.5625 148.914062 C 176.984375 148.808594 176.417969 148.648438 175.863281 148.4375 C 175.3125 148.230469 174.785156 147.96875 174.28125 147.664062 C 173.777344 147.355469 173.304688 147.007812 172.863281 146.613281 L 20.953125 11.171875 C 21.320312 11.113281 21.6875 11.074219 22.054688 11.058594 Z M 12.820312 215.371094 C 12.515625 214.441406 12.355469 213.488281 12.34375 212.511719 L 12.34375 20.773438 C 12.355469 19.796875 12.515625 18.84375 12.820312 17.917969 L 123.570312 116.644531 Z M 22.054688 222.234375 C 21.6875 222.21875 21.320312 222.183594 20.953125 222.125 L 131.410156 123.648438 L 165.941406 154.414062 C 166.855469 155.230469 167.835938 155.957031 168.882812 156.59375 C 169.929688 157.230469 171.027344 157.765625 172.171875 158.203125 C 173.320312 158.640625 174.496094 158.96875 175.699219 159.191406 C 176.90625 159.414062 178.121094 159.523438 179.347656 159.523438 C 180.574219 159.523438 181.789062 159.414062 182.996094 159.191406 C 184.199219 158.96875 185.375 158.640625 186.519531 158.203125 C 187.667969 157.765625 188.761719 157.230469 189.8125 156.59375 C 190.859375 155.957031 191.839844 155.230469 192.753906 154.414062 L 227.277344 123.640625 L 337.730469 222.117188 C 337.363281 222.175781 336.996094 222.210938 336.625 222.226562 Z M 22.054688 222.234375 " fill-opacity="1" fill-rule="nonzero"/></g></g></g></g></svg>