<svg xmlns="http://www.w3.org/2000/svg" xmlns:xlink="http://www.w3.org/1999/xlink" width="500" zoomAndPan="magnify" viewBox="0 0 375 374.999991" height="500" preserveAspectRatio="xMidYMid meet" version="1.0"><defs><filter x="0%" y="0%" width="100%" height="100%" id="a8a6f717b3"><feColorMatrix values="0 0 0 0 1 0 0 0 0 1 0 0 0 0 1 0 0 0 1 0" color-interpolation-filters="sRGB"/></filter><mask id="f6ccc6f6f5"><g filter="url(#a8a6f717b3)"><rect x="-37.5" width="450" fill="#000000" y="-37.499999" height="449.999989" fill-opacity="0.5"/></g></mask><clipPath id="b58c45875e"><path d="M 2 0.492188 L 308.558594 0.492188 L 308.558594 306.492188 L 2 306.492188 Z M 2 0.492188 " clip-rule="nonzero"/></clipPath><clipPath id="0b2f1d4e09"><rect x="0" width="309" y="0" height="308"/></clipPath></defs><g mask="url(#f6ccc6f6f5)"><g transform="matrix(1, 0, 0, 1, 32, 34)"><g clip-path="url(#0b2f1d4e09)"><g clip-path="url(#b58c45875e)"><path fill="#ffffff" d="M 306.039062 127.007812 C 305.53125 124.628906 303.492188 122.761719 300.945312 122.761719 L 230.300781 122.761719 L 233.359375 101.195312 C 242.527344 97.796875 250.847656 89.816406 255.265625 78.949219 C 262.058594 61.796875 251.699219 23.757812 250.511719 19.511719 C 250 17.984375 248.980469 16.792969 247.453125 16.117188 C 245.925781 15.605469 244.394531 15.605469 243.039062 16.457031 C 239.132812 18.664062 205.339844 39.039062 198.546875 56.191406 C 194.128906 67.0625 194.640625 78.269531 198.886719 87.097656 L 186.148438 104.589844 L 186.148438 5.585938 C 186.148438 2.699219 183.941406 0.492188 181.054688 0.492188 L 130.109375 0.492188 C 127.222656 0.492188 125.015625 2.699219 125.015625 5.585938 L 125.015625 114.78125 L 103.957031 56.871094 C 103.789062 56.363281 103.449219 55.851562 103.109375 55.511719 L 73.050781 17.644531 C 71.691406 15.945312 69.3125 15.265625 67.277344 15.945312 C 65.238281 16.625 63.878906 18.664062 63.878906 20.871094 L 65.238281 69.097656 C 65.238281 69.609375 65.410156 70.117188 65.578125 70.628906 L 84.597656 122.761719 L 10.21875 122.761719 C 7.671875 122.761719 5.632812 124.460938 5.121094 127.007812 C 1.898438 144.328125 1.898438 162.667969 5.121094 180.160156 C 5.632812 182.535156 7.671875 184.40625 10.21875 184.40625 L 36.878906 184.40625 C 39.765625 195.613281 44.179688 206.140625 49.953125 215.992188 L 31.105469 234.839844 C 29.40625 236.539062 29.066406 239.257812 30.597656 241.292969 C 40.613281 255.726562 53.179688 268.292969 67.957031 278.652344 C 69.992188 280.011719 72.710938 279.84375 74.410156 278.144531 L 93.257812 259.292969 C 103.109375 265.070312 113.804688 269.484375 124.84375 272.371094 L 124.84375 299.03125 C 124.84375 301.578125 126.542969 303.617188 129.089844 304.125 C 137.75 305.65625 146.582031 306.503906 155.410156 306.503906 C 164.242188 306.503906 173.074219 305.65625 181.902344 304.125 C 184.28125 303.617188 186.148438 301.578125 186.148438 299.03125 L 186.148438 272.199219 C 197.1875 269.3125 207.886719 264.898438 217.734375 259.125 L 236.585938 277.972656 C 238.28125 279.671875 241 280.011719 243.039062 278.484375 C 257.640625 268.292969 270.207031 255.898438 280.398438 241.125 C 281.757812 239.085938 281.585938 236.371094 279.886719 234.671875 L 261.039062 215.820312 C 266.8125 205.972656 271.226562 195.441406 274.113281 184.234375 L 300.945312 184.234375 C 303.492188 184.234375 305.53125 182.535156 306.039062 179.988281 C 309.097656 162.839844 309.097656 144.496094 306.039062 127.007812 Z M 207.886719 59.929688 C 211.792969 50.078125 230.640625 36.324219 242.359375 28.851562 C 245.585938 42.265625 249.660156 65.363281 245.753906 75.210938 C 240.320312 88.628906 227.585938 95.929688 217.054688 91.855469 C 206.695312 87.609375 202.453125 73.34375 207.886719 59.929688 Z M 226.90625 153.328125 C 226.90625 181.6875 210.09375 206.3125 186.148438 217.6875 L 225.207031 137.875 C 226.226562 142.96875 226.90625 148.0625 226.90625 153.328125 Z M 205 95.929688 C 207.375 98.136719 210.09375 100.003906 213.320312 101.195312 C 216.375 102.382812 219.601562 103.0625 222.828125 103.0625 L 220.453125 120.554688 L 194.640625 110.195312 Z M 189.886719 119.195312 L 217.566406 130.402344 L 172.394531 222.613281 C 167.128906 223.972656 161.523438 224.652344 155.75 224.652344 Z M 135.203125 132.949219 L 150.488281 132.949219 L 150.488281 122.761719 L 135.203125 122.761719 L 135.203125 102.382812 L 150.488281 102.382812 L 150.488281 92.195312 L 135.203125 92.195312 L 135.203125 71.816406 L 150.488281 71.816406 L 150.488281 61.625 L 135.203125 61.625 L 135.203125 41.25 L 150.488281 41.25 L 150.488281 31.058594 L 135.203125 31.058594 L 135.203125 10.679688 L 175.960938 10.679688 L 175.960938 129.042969 L 154.394531 195.613281 L 135.203125 142.800781 Z M 74.578125 35.984375 L 90.710938 56.363281 L 75.257812 61.964844 Z M 96.144531 65.191406 L 149.296875 211.40625 L 145.222656 223.800781 C 140.128906 223.125 135.375 221.765625 130.789062 220.066406 L 76.957031 72.15625 Z M 87.65625 131.589844 L 117.542969 213.613281 C 97.671875 200.878906 84.257812 178.632812 84.257812 153.328125 C 84.257812 145.855469 85.445312 138.554688 87.65625 131.589844 Z M 296.699219 174.046875 L 270.207031 174.046875 C 267.832031 174.046875 265.792969 175.746094 265.285156 177.953125 C 262.398438 190.6875 257.472656 202.746094 250.511719 213.785156 C 249.152344 215.820312 249.492188 218.367188 251.1875 220.066406 L 269.867188 238.746094 C 261.71875 249.785156 252.039062 259.464844 241 267.617188 L 222.320312 248.9375 C 220.621094 247.238281 218.074219 246.898438 216.035156 248.257812 C 205 255.21875 192.941406 260.144531 180.207031 263.03125 C 177.828125 263.539062 176.300781 265.578125 176.300781 267.957031 L 176.300781 294.277344 C 162.714844 296.316406 148.957031 296.316406 135.375 294.277344 L 135.375 267.957031 C 135.375 265.578125 133.675781 263.539062 131.46875 263.03125 C 118.390625 260.3125 106.335938 255.21875 95.296875 248.425781 C 93.257812 247.066406 90.710938 247.40625 89.011719 249.105469 L 70.332031 267.785156 C 59.296875 259.464844 49.445312 249.785156 41.464844 238.917969 L 60.144531 220.238281 C 61.84375 218.539062 62.183594 215.992188 60.824219 213.953125 C 53.859375 203.085938 48.9375 191.027344 45.878906 178.121094 C 45.371094 175.746094 43.332031 174.214844 40.953125 174.214844 L 14.464844 174.214844 C 12.425781 160.628906 12.425781 146.535156 14.464844 133.121094 L 76.617188 133.121094 C 74.917969 139.742188 74.070312 146.535156 74.070312 153.496094 C 74.070312 198.5 110.578125 235.011719 155.582031 235.011719 C 200.582031 235.011719 237.09375 198.5 237.09375 153.496094 C 237.09375 146.535156 236.246094 139.742188 234.546875 133.121094 L 296.699219 133.121094 C 298.738281 146.535156 298.738281 160.628906 296.699219 174.046875 Z M 296.699219 174.046875 " fill-opacity="1" fill-rule="nonzero"/></g></g></g></g></svg>