<svg xmlns="http://www.w3.org/2000/svg" xmlns:xlink="http://www.w3.org/1999/xlink" width="500" zoomAndPan="magnify" viewBox="0 0 375 374.999991" height="500" preserveAspectRatio="xMidYMid meet" version="1.0"><defs><clipPath id="29507feaa6"><path d="M 21.097656 21.097656 L 354 21.097656 L 354 354 L 21.097656 354 Z M 21.097656 21.097656 " clip-rule="nonzero"/></clipPath></defs><g clip-path="url(#29507feaa6)"><path fill="#ffffff" d="M 286.527344 353.898438 L 88.472656 353.898438 C 51.132812 353.898438 21.097656 323.867188 21.097656 286.527344 L 21.097656 88.472656 C 21.097656 51.132812 51.132812 21.097656 88.472656 21.097656 L 286.527344 21.097656 C 323.867188 21.097656 353.898438 51.132812 353.898438 88.472656 L 353.898438 286.527344 C 353.898438 323.867188 323.867188 353.898438 286.527344 353.898438 Z M 88.472656 29.214844 C 56.003906 29.214844 29.214844 56.003906 29.214844 88.472656 L 29.214844 286.527344 C 29.214844 318.996094 56.003906 345.78125 88.472656 345.78125 L 286.527344 345.78125 C 318.996094 345.78125 345.78125 318.996094 345.78125 286.527344 L 345.78125 88.472656 C 345.78125 56.003906 318.996094 29.214844 286.527344 29.214844 Z M 88.472656 29.214844 " fill-opacity="1" fill-rule="nonzero"/></g><path fill="#ffffff" d="M 305.199219 177.757812 L 277.597656 153.40625 L 266.234375 143.667969 L 266.234375 101.457031 C 266.234375 95.777344 262.175781 92.53125 257.308594 92.53125 L 241.882812 92.53125 C 236.203125 92.53125 232.957031 96.589844 232.957031 101.457031 L 232.957031 113.632812 L 215.910156 98.210938 L 195.617188 79.542969 C 191.558594 75.484375 184.253906 75.484375 180.195312 79.542969 L 159.089844 98.210938 L 131.492188 122.5625 L 98.210938 152.597656 L 69.800781 177.757812 C 64.933594 182.628906 64.121094 189.933594 68.992188 195.617188 L 77.105469 204.546875 C 81.976562 209.414062 89.28125 210.226562 94.964844 205.359375 L 98.210938 202.921875 L 98.210938 280.035156 C 98.210938 285.714844 102.269531 289.773438 107.953125 289.773438 L 161.523438 289.773438 L 161.523438 213.472656 C 161.523438 207.792969 165.582031 204.546875 170.453125 204.546875 L 204.546875 204.546875 C 210.226562 204.546875 213.472656 208.605469 213.472656 213.472656 L 213.472656 290.585938 L 267.859375 290.585938 C 273.539062 290.585938 277.597656 286.527344 277.597656 280.847656 L 277.597656 203.734375 L 280.035156 206.167969 C 285.714844 211.039062 293.023438 210.226562 297.890625 205.355469 L 306.007812 196.429688 C 310.878906 189.933594 310.066406 182.628906 305.199219 177.757812 Z M 305.199219 177.757812 " fill-opacity="1" fill-rule="nonzero"/></svg>