<svg xmlns="http://www.w3.org/2000/svg" xmlns:xlink="http://www.w3.org/1999/xlink" width="500" zoomAndPan="magnify" viewBox="0 0 375 374.999991" height="500" preserveAspectRatio="xMidYMid meet" version="1.0"><defs><filter x="0%" y="0%" width="100%" height="100%" id="59a720459e"><feColorMatrix values="0 0 0 0 1 0 0 0 0 1 0 0 0 0 1 0 0 0 1 0" color-interpolation-filters="sRGB"/></filter><mask id="da4790e180"><g filter="url(#59a720459e)"><rect x="-37.5" width="450" fill="#000000" y="-37.499999" height="449.999989" fill-opacity="0.51"/></g></mask><clipPath id="d9b348d8d6"><path d="M 1 0.078125 L 321.890625 0.078125 L 321.890625 335 L 1 335 Z M 1 0.078125 " clip-rule="nonzero"/></clipPath><clipPath id="66429ad98c"><rect x="0" width="324" y="0" height="341"/></clipPath></defs><g mask="url(#da4790e180)"><g transform="matrix(1, 0, 0, 1, 26, 34)"><g clip-path="url(#66429ad98c)"><g clip-path="url(#d9b348d8d6)"><path fill="#ffffff" d="M 303.828125 72.855469 L 273.429688 72.855469 C 278.960938 63.019531 275.21875 35.898438 270.183594 20.8125 C 253.6875 -27.710938 188.671875 25.054688 177.410156 35.042969 C 172.546875 31.140625 160.542969 32.992188 154.773438 32.578125 C 151.683594 32.589844 148.820312 33.410156 146.191406 35.039062 C 135.027344 25.121094 69.925781 -27.695312 53.4375 20.757812 C 48.402344 35.847656 44.621094 63.003906 50.175781 72.855469 L 19.765625 72.855469 C 19.175781 72.855469 18.589844 72.882812 18.007812 72.941406 C 17.421875 73 16.839844 73.085938 16.265625 73.203125 C 15.691406 73.316406 15.121094 73.460938 14.558594 73.632812 C 13.996094 73.800781 13.445312 74 12.902344 74.226562 C 12.359375 74.449219 11.828125 74.699219 11.3125 74.976562 C 10.792969 75.253906 10.289062 75.558594 9.800781 75.882812 C 9.3125 76.210938 8.84375 76.558594 8.390625 76.933594 C 7.933594 77.304688 7.5 77.699219 7.085938 78.113281 C 6.667969 78.527344 6.277344 78.964844 5.902344 79.417969 C 5.53125 79.871094 5.179688 80.34375 4.855469 80.832031 C 4.527344 81.320312 4.226562 81.824219 3.949219 82.339844 C 3.671875 82.859375 3.421875 83.386719 3.195312 83.929688 C 2.972656 84.472656 2.773438 85.027344 2.601562 85.585938 C 2.429688 86.148438 2.289062 86.71875 2.171875 87.292969 C 2.058594 87.871094 1.972656 88.449219 1.914062 89.035156 C 1.855469 89.621094 1.824219 90.207031 1.824219 90.792969 L 1.824219 154.019531 C 1.824219 154.410156 1.863281 154.800781 1.941406 155.183594 C 2.015625 155.570312 2.128906 155.941406 2.28125 156.304688 C 2.429688 156.667969 2.613281 157.011719 2.832031 157.339844 C 3.050781 157.667969 3.300781 157.96875 3.578125 158.246094 C 3.855469 158.523438 4.15625 158.769531 4.484375 158.988281 C 4.808594 159.207031 5.152344 159.390625 5.515625 159.542969 C 5.878906 159.691406 6.253906 159.804688 6.636719 159.882812 C 7.023438 159.957031 7.414062 159.996094 7.804688 159.996094 L 19.523438 159.996094 L 19.523438 317.035156 C 19.523438 317.625 19.554688 318.210938 19.613281 318.792969 C 19.671875 319.378906 19.757812 319.960938 19.871094 320.535156 C 19.988281 321.109375 20.128906 321.679688 20.300781 322.242188 C 20.472656 322.804688 20.671875 323.355469 20.894531 323.898438 C 21.121094 324.441406 21.371094 324.972656 21.648438 325.488281 C 21.925781 326.007812 22.226562 326.511719 22.554688 327 C 22.878906 327.488281 23.230469 327.957031 23.601562 328.410156 C 23.976562 328.867188 24.367188 329.300781 24.785156 329.714844 C 25.199219 330.128906 25.632812 330.523438 26.089844 330.898438 C 26.542969 331.269531 27.011719 331.621094 27.5 331.945312 C 27.988281 332.273438 28.492188 332.574219 29.011719 332.851562 C 29.527344 333.128906 30.058594 333.378906 30.601562 333.605469 C 31.144531 333.828125 31.695312 334.027344 32.257812 334.199219 C 32.820312 334.371094 33.390625 334.511719 33.964844 334.628906 C 34.539062 334.742188 35.121094 334.828125 35.707031 334.886719 C 36.289062 334.945312 36.875 334.972656 37.464844 334.976562 C 69.316406 334.976562 286.128906 334.976562 286.128906 334.976562 C 286.71875 334.972656 287.304688 334.945312 287.886719 334.886719 C 288.472656 334.828125 289.050781 334.742188 289.628906 334.628906 C 290.203125 334.511719 290.773438 334.371094 291.335938 334.199219 C 291.898438 334.027344 292.449219 333.828125 292.992188 333.605469 C 293.535156 333.378906 294.066406 333.128906 294.582031 332.851562 C 295.101562 332.574219 295.601562 332.273438 296.089844 331.945312 C 296.578125 331.621094 297.050781 331.269531 297.503906 330.898438 C 297.957031 330.523438 298.394531 330.128906 298.808594 329.714844 C 299.222656 329.300781 299.617188 328.867188 299.992188 328.410156 C 300.363281 327.957031 300.714844 327.488281 301.039062 327 C 301.367188 326.511719 301.667969 326.007812 301.945312 325.488281 C 302.222656 324.972656 302.472656 324.441406 302.699219 323.898438 C 302.921875 323.355469 303.121094 322.804688 303.292969 322.242188 C 303.460938 321.679688 303.605469 321.109375 303.71875 320.535156 C 303.835938 319.960938 303.921875 319.378906 303.980469 318.792969 C 304.039062 318.210938 304.066406 317.625 304.070312 317.035156 L 304.070312 159.996094 L 315.789062 159.996094 C 316.179688 159.996094 316.570312 159.957031 316.953125 159.882812 C 317.339844 159.804688 317.714844 159.691406 318.078125 159.542969 C 318.4375 159.390625 318.785156 159.207031 319.109375 158.988281 C 319.4375 158.769531 319.738281 158.523438 320.015625 158.246094 C 320.292969 157.96875 320.542969 157.667969 320.761719 157.339844 C 320.976562 157.011719 321.164062 156.667969 321.3125 156.304688 C 321.460938 155.941406 321.578125 155.570312 321.652344 155.183594 C 321.730469 154.800781 321.769531 154.410156 321.769531 154.019531 L 321.769531 90.792969 C 321.765625 90.207031 321.738281 89.621094 321.679688 89.035156 C 321.621094 88.449219 321.535156 87.871094 321.417969 87.292969 C 321.304688 86.71875 321.160156 86.148438 320.992188 85.585938 C 320.820312 85.027344 320.621094 84.472656 320.398438 83.929688 C 320.171875 83.386719 319.921875 82.859375 319.644531 82.339844 C 319.367188 81.824219 319.066406 81.320312 318.738281 80.832031 C 318.414062 80.34375 318.0625 79.871094 317.691406 79.417969 C 317.316406 78.964844 316.921875 78.527344 316.507812 78.113281 C 316.09375 77.699219 315.65625 77.304688 315.203125 76.933594 C 314.75 76.558594 314.277344 76.210938 313.789062 75.882812 C 313.300781 75.558594 312.800781 75.253906 312.28125 74.976562 C 311.761719 74.699219 311.234375 74.449219 310.691406 74.226562 C 310.148438 74 309.597656 73.800781 309.035156 73.632812 C 308.472656 73.460938 307.902344 73.316406 307.328125 73.203125 C 306.75 73.085938 306.171875 73 305.585938 72.941406 C 305.003906 72.882812 304.417969 72.855469 303.828125 72.855469 Z M 193.160156 72.855469 C 208.570312 58.683594 245.769531 50.453125 263.789062 47.898438 C 265.015625 58.113281 264.851562 70.773438 257.164062 72.855469 Z M 187.179688 148.039062 C 186.738281 147.992188 136.851562 148.070312 136.414062 148.039062 L 136.414062 84.8125 C 136.414062 84.8125 182.335938 84.820312 187.179688 84.8125 Z M 238.339844 12.761719 C 254.351562 8.757812 259.683594 23.257812 261.703125 36.140625 C 246.25 38.390625 207.390625 45.597656 185.453125 63.347656 C 185.800781 57.0625 185.550781 50.800781 184.710938 44.5625 C 192.507812 37.539062 200.921875 31.355469 209.949219 26 C 218.972656 20.648438 228.4375 16.234375 238.339844 12.761719 Z M 154.773438 44.535156 L 168.820312 44.535156 C 169.125 44.539062 169.429688 44.566406 169.730469 44.628906 C 170.03125 44.6875 170.324219 44.777344 170.609375 44.894531 C 170.890625 45.011719 171.160156 45.15625 171.417969 45.328125 C 171.671875 45.5 171.90625 45.691406 172.125 45.910156 C 172.339844 46.128906 172.535156 46.363281 172.707031 46.617188 C 172.875 46.875 173.019531 47.144531 173.136719 47.425781 C 173.257812 47.710938 173.34375 48.003906 173.40625 48.304688 C 173.464844 48.605469 173.496094 48.910156 173.496094 49.21875 L 173.496094 72.855469 L 150.097656 72.855469 L 150.097656 49.21875 C 150.097656 48.910156 150.128906 48.605469 150.1875 48.304688 C 150.25 48.003906 150.335938 47.710938 150.453125 47.425781 C 150.570312 47.144531 150.714844 46.875 150.886719 46.617188 C 151.058594 46.363281 151.25 46.125 151.46875 45.910156 C 151.6875 45.691406 151.921875 45.5 152.175781 45.328125 C 152.433594 45.15625 152.703125 45.011719 152.984375 44.894531 C 153.269531 44.777344 153.5625 44.6875 153.863281 44.628906 C 154.164062 44.566406 154.46875 44.535156 154.773438 44.535156 Z M 64.921875 24.078125 C 65.070312 23.5625 65.246094 23.050781 65.445312 22.550781 C 65.640625 22.050781 65.863281 21.558594 66.113281 21.082031 C 66.359375 20.601562 66.628906 20.136719 66.921875 19.683594 C 67.210938 19.230469 67.527344 18.792969 67.863281 18.371094 C 68.195312 17.949219 68.550781 17.546875 68.925781 17.15625 C 69.300781 16.769531 69.695312 16.402344 70.105469 16.054688 C 70.515625 15.707031 70.945312 15.378906 71.386719 15.070312 C 71.828125 14.765625 72.285156 14.480469 72.757812 14.21875 C 73.226562 13.957031 73.710938 13.71875 74.203125 13.503906 C 74.699219 13.289062 75.203125 13.097656 75.714844 12.933594 C 76.230469 12.769531 76.75 12.628906 77.273438 12.515625 C 77.800781 12.398438 78.332031 12.3125 78.867188 12.25 C 79.402344 12.1875 79.941406 12.152344 80.476562 12.140625 C 81.015625 12.132812 81.554688 12.148438 82.09375 12.191406 C 82.628906 12.234375 83.164062 12.304688 83.695312 12.398438 C 84.222656 12.496094 84.75 12.617188 85.265625 12.761719 C 95.167969 16.234375 104.628906 20.648438 113.652344 26 C 122.675781 31.351562 131.089844 37.535156 138.886719 44.554688 C 138.089844 50.792969 137.839844 57.054688 138.140625 63.335938 C 116.199219 45.597656 77.351562 38.390625 61.898438 36.140625 C 62.753906 32.175781 63.726562 28.132812 64.921875 24.078125 Z M 59.816406 47.898438 C 78.523438 50.546875 113.140625 58.238281 130.882812 72.855469 L 66.4375 72.855469 C 58.753906 70.773438 58.589844 58.109375 59.816406 47.898438 Z M 13.785156 90.792969 C 13.785156 90.398438 13.824219 90.011719 13.902344 89.625 C 13.976562 89.242188 14.089844 88.867188 14.242188 88.503906 C 14.390625 88.144531 14.578125 87.796875 14.792969 87.472656 C 15.011719 87.144531 15.261719 86.84375 15.539062 86.566406 C 15.816406 86.289062 16.117188 86.042969 16.445312 85.824219 C 16.769531 85.605469 17.113281 85.421875 17.476562 85.269531 C 17.839844 85.121094 18.214844 85.007812 18.597656 84.929688 C 18.984375 84.851562 19.371094 84.8125 19.765625 84.8125 L 124.453125 84.8125 L 124.453125 148.039062 C 117.28125 148.023438 18.078125 148.046875 13.785156 148.039062 Z M 31.484375 317.035156 L 31.484375 159.996094 L 132.4375 159.996094 L 132.4375 323.015625 L 37.464844 323.015625 C 37.070312 323.015625 36.683594 322.976562 36.296875 322.898438 C 35.914062 322.824219 35.539062 322.710938 35.175781 322.558594 C 34.8125 322.410156 34.46875 322.222656 34.144531 322.007812 C 33.816406 321.789062 33.515625 321.539062 33.238281 321.261719 C 32.960938 320.984375 32.710938 320.683594 32.492188 320.355469 C 32.277344 320.03125 32.089844 319.6875 31.941406 319.324219 C 31.789062 318.960938 31.675781 318.585938 31.601562 318.203125 C 31.523438 317.816406 31.484375 317.429688 31.484375 317.035156 Z M 144.394531 323.015625 L 144.394531 159.996094 L 179.199219 159.996094 L 179.199219 323.015625 Z M 292.109375 317.035156 C 292.109375 317.429688 292.070312 317.816406 291.992188 318.203125 C 291.917969 318.585938 291.804688 318.960938 291.652344 319.324219 C 291.503906 319.6875 291.316406 320.03125 291.097656 320.355469 C 290.882812 320.683594 290.632812 320.984375 290.355469 321.261719 C 290.078125 321.539062 289.777344 321.789062 289.449219 322.007812 C 289.125 322.222656 288.78125 322.410156 288.417969 322.558594 C 288.054688 322.710938 287.679688 322.824219 287.296875 322.898438 C 286.910156 322.976562 286.523438 323.015625 286.128906 323.015625 L 191.15625 323.015625 L 191.15625 159.996094 L 292.109375 159.996094 Z M 309.808594 148.039062 C 305.996094 148.0625 205.824219 148.023438 199.140625 148.039062 L 199.140625 84.8125 L 303.828125 84.8125 C 304.222656 84.8125 304.609375 84.851562 304.996094 84.929688 C 305.378906 85.007812 305.753906 85.121094 306.117188 85.269531 C 306.480469 85.421875 306.824219 85.605469 307.148438 85.824219 C 307.476562 86.042969 307.777344 86.289062 308.054688 86.566406 C 308.332031 86.84375 308.582031 87.144531 308.796875 87.472656 C 309.015625 87.796875 309.203125 88.144531 309.351562 88.503906 C 309.503906 88.867188 309.617188 89.242188 309.691406 89.625 C 309.769531 90.011719 309.808594 90.398438 309.808594 90.792969 Z M 309.808594 148.039062 " fill-opacity="1" fill-rule="nonzero"/></g></g></g></g></svg>