<svg xmlns="http://www.w3.org/2000/svg" xmlns:xlink="http://www.w3.org/1999/xlink" width="500" zoomAndPan="magnify" viewBox="0 0 375 374.999991" height="500" preserveAspectRatio="xMidYMid meet" version="1.0"><defs><filter x="0%" y="0%" width="100%" height="100%" id="96ab9b1d80"><feColorMatrix values="0 0 0 0 1 0 0 0 0 1 0 0 0 0 1 0 0 0 1 0" color-interpolation-filters="sRGB"/></filter><mask id="0fa08b459d"><g filter="url(#96ab9b1d80)"><rect x="-37.5" width="450" fill="#000000" y="-37.499999" height="449.999989" fill-opacity="0.52"/></g></mask><clipPath id="666c92ea12"><path d="M 62.5625 86.199219 L 276.429688 86.199219 L 276.429688 176.164062 L 62.5625 176.164062 Z M 62.5625 86.199219 " clip-rule="nonzero"/></clipPath><clipPath id="51e836f6a0"><path d="M 0.480469 0.839844 L 338.398438 0.839844 L 338.398438 122 L 0.480469 122 Z M 0.480469 0.839844 " clip-rule="nonzero"/></clipPath><clipPath id="5d18dec7f3"><rect x="0" width="339" y="0" height="177"/></clipPath></defs><g mask="url(#0fa08b459d)"><g transform="matrix(1, 0, 0, 1, 18, 99)"><g clip-path="url(#5d18dec7f3)"><g clip-path="url(#666c92ea12)"><path fill="#ffffff" d="M 276.277344 148.464844 C 276.351562 149.78125 275.8125 151.058594 274.8125 151.921875 C 273.675781 152.914062 246.011719 176.164062 169.496094 176.164062 C 92.976562 176.164062 65.316406 152.914062 64.171875 151.921875 C 63.179688 151.058594 62.636719 149.78125 62.710938 148.464844 L 66.179688 86.277344 L 74.570312 89.125 L 71.359375 146.652344 C 74.144531 148.570312 80.707031 152.5625 91.921875 156.519531 C 106.28125 161.585938 131.390625 167.628906 169.496094 167.628906 C 207.601562 167.628906 232.710938 161.585938 247.066406 156.519531 C 258.273438 152.566406 264.832031 148.578125 267.628906 146.652344 L 264.421875 89.125 L 272.808594 86.277344 L 276.277344 148.464844 " fill-opacity="1" fill-rule="nonzero"/></g><g clip-path="url(#51e836f6a0)"><path fill="#ffffff" d="M 272.316406 77.429688 L 263.925781 80.277344 L 169.496094 112.320312 L 75.0625 80.277344 L 66.671875 77.429688 L 18.199219 60.984375 L 169.496094 9.648438 L 320.789062 60.984375 Z M 335.441406 56.945312 L 170.867188 1.105469 C 169.976562 0.800781 169.011719 0.800781 168.125 1.105469 L 3.546875 56.945312 C 1.816406 57.53125 0.652344 59.15625 0.652344 60.984375 C 0.652344 62.8125 1.816406 64.4375 3.546875 65.027344 L 66.179688 86.277344 L 74.570312 89.125 L 168.125 120.867188 C 168.566406 121.019531 169.03125 121.09375 169.496094 121.09375 C 169.957031 121.09375 170.421875 121.019531 170.867188 120.867188 L 264.421875 89.125 L 272.808594 86.277344 L 335.441406 65.027344 C 337.171875 64.4375 338.335938 62.8125 338.335938 60.984375 C 338.335938 59.15625 337.171875 57.53125 335.441406 56.945312 " fill-opacity="1" fill-rule="nonzero"/></g><path fill="#ffffff" d="M 300.921875 112.726562 C 288.773438 76.882812 271.234375 57.054688 247.300781 52.109375 C 217.519531 45.953125 174.445312 54.917969 172.628906 55.300781 C 171.417969 55.558594 170.398438 56.257812 169.828125 57.222656 C 169.335938 58.054688 169.214844 59.007812 169.488281 59.910156 C 170.0625 61.785156 172.21875 62.894531 174.410156 62.4375 C 174.835938 62.347656 217.222656 53.488281 245.167969 59.257812 C 266.054688 63.574219 281.679688 81.808594 292.925781 115.007812 C 293.449219 116.542969 295.003906 117.539062 296.804688 117.539062 C 296.953125 117.539062 297.109375 117.53125 297.261719 117.519531 C 297.480469 117.496094 297.691406 117.464844 297.898438 117.414062 C 299.105469 117.136719 300.109375 116.417969 300.65625 115.441406 C 301.132812 114.59375 301.226562 113.628906 300.921875 112.726562 " fill-opacity="1" fill-rule="nonzero"/><path fill="#ffffff" d="M 300.800781 124.433594 L 306.882812 156.84375 C 309.171875 156.527344 312.394531 155.871094 315.910156 154.496094 Z M 303.445312 165.667969 C 303.394531 165.667969 303.363281 165.667969 303.347656 165.667969 C 301.3125 165.644531 299.578125 164.1875 299.207031 162.1875 L 292.140625 124.570312 C 291.839844 123.710938 291.203125 121.695312 290.960938 119.394531 C 290.269531 112.757812 293.496094 109.957031 295.484375 108.878906 C 296.070312 108.558594 296.726562 108.382812 297.394531 108.363281 C 299.652344 108.300781 303.855469 109.097656 306.585938 115.1875 C 307.441406 117.097656 307.902344 118.96875 308.109375 119.972656 L 325.523438 154.613281 C 326.566406 156.6875 325.757812 159.21875 323.703125 160.300781 C 313.851562 165.507812 304.558594 165.667969 303.445312 165.667969 " fill-opacity="1" fill-rule="nonzero"/></g></g></g></svg>